<mxfile host="app.diagrams.net" modified="2024-05-25T06:54:36.875Z" agent="Mozilla/5.0 (Windows NT 10.0; Win64; x64) AppleWebKit/537.36 (KHTML, like Gecko) Chrome/125.0.0.0 Safari/537.36 Edg/125.0.0.0" etag="maapK82cQp3uDDXeP5dE" version="24.4.8" type="device">
  <diagram name="Page-1" id="c4acf3e9-155e-7222-9cf6-157b1a14988f">
    <mxGraphModel dx="1670" dy="962" grid="1" gridSize="10" guides="1" tooltips="1" connect="1" arrows="1" fold="1" page="1" pageScale="1" pageWidth="850" pageHeight="1100" background="none" math="0" shadow="0">
      <root>
        <mxCell id="0" />
        <mxCell id="1" parent="0" />
        <mxCell id="RE0LK0E4KBzCZL2A0xfb-5" value="ServiceType" style="swimlane;fontStyle=0;childLayout=stackLayout;horizontal=1;startSize=26;fillColor=none;horizontalStack=0;resizeParent=1;resizeParentMax=0;resizeLast=0;collapsible=1;marginBottom=0;whiteSpace=wrap;html=1;" parent="1" vertex="1">
          <mxGeometry x="80" y="40" width="140" height="52" as="geometry" />
        </mxCell>
        <mxCell id="RE0LK0E4KBzCZL2A0xfb-6" value="+ CharField: name" style="text;strokeColor=none;fillColor=none;align=left;verticalAlign=top;spacingLeft=4;spacingRight=4;overflow=hidden;rotatable=0;points=[[0,0.5],[1,0.5]];portConstraint=eastwest;whiteSpace=wrap;html=1;" parent="RE0LK0E4KBzCZL2A0xfb-5" vertex="1">
          <mxGeometry y="26" width="140" height="26" as="geometry" />
        </mxCell>
        <mxCell id="RE0LK0E4KBzCZL2A0xfb-9" value="Service" style="swimlane;fontStyle=0;childLayout=stackLayout;horizontal=1;startSize=26;fillColor=none;horizontalStack=0;resizeParent=1;resizeParentMax=0;resizeLast=0;collapsible=1;marginBottom=0;whiteSpace=wrap;html=1;" parent="1" vertex="1">
          <mxGeometry x="80" y="150" width="140" height="78" as="geometry" />
        </mxCell>
        <mxCell id="RE0LK0E4KBzCZL2A0xfb-10" value="+ CharField: name" style="text;strokeColor=none;fillColor=none;align=left;verticalAlign=top;spacingLeft=4;spacingRight=4;overflow=hidden;rotatable=0;points=[[0,0.5],[1,0.5]];portConstraint=eastwest;whiteSpace=wrap;html=1;" parent="RE0LK0E4KBzCZL2A0xfb-9" vertex="1">
          <mxGeometry y="26" width="140" height="26" as="geometry" />
        </mxCell>
        <mxCell id="RE0LK0E4KBzCZL2A0xfb-11" value="+ int: price" style="text;strokeColor=none;fillColor=none;align=left;verticalAlign=top;spacingLeft=4;spacingRight=4;overflow=hidden;rotatable=0;points=[[0,0.5],[1,0.5]];portConstraint=eastwest;whiteSpace=wrap;html=1;" parent="RE0LK0E4KBzCZL2A0xfb-9" vertex="1">
          <mxGeometry y="52" width="140" height="26" as="geometry" />
        </mxCell>
        <mxCell id="RE0LK0E4KBzCZL2A0xfb-13" value="CarModel" style="swimlane;fontStyle=0;childLayout=stackLayout;horizontal=1;startSize=26;fillColor=none;horizontalStack=0;resizeParent=1;resizeParentMax=0;resizeLast=0;collapsible=1;marginBottom=0;whiteSpace=wrap;html=1;" parent="1" vertex="1">
          <mxGeometry x="490" y="40" width="140" height="52" as="geometry" />
        </mxCell>
        <mxCell id="RE0LK0E4KBzCZL2A0xfb-14" value="+ CharField: name" style="text;strokeColor=none;fillColor=none;align=left;verticalAlign=top;spacingLeft=4;spacingRight=4;overflow=hidden;rotatable=0;points=[[0,0.5],[1,0.5]];portConstraint=eastwest;whiteSpace=wrap;html=1;" parent="RE0LK0E4KBzCZL2A0xfb-13" vertex="1">
          <mxGeometry y="26" width="140" height="26" as="geometry" />
        </mxCell>
        <mxCell id="RE0LK0E4KBzCZL2A0xfb-17" value="CarType" style="swimlane;fontStyle=0;childLayout=stackLayout;horizontal=1;startSize=26;fillColor=none;horizontalStack=0;resizeParent=1;resizeParentMax=0;resizeLast=0;collapsible=1;marginBottom=0;whiteSpace=wrap;html=1;" parent="1" vertex="1">
          <mxGeometry x="670" y="40" width="140" height="52" as="geometry" />
        </mxCell>
        <mxCell id="RE0LK0E4KBzCZL2A0xfb-18" value="+ CharField: name" style="text;strokeColor=none;fillColor=none;align=left;verticalAlign=top;spacingLeft=4;spacingRight=4;overflow=hidden;rotatable=0;points=[[0,0.5],[1,0.5]];portConstraint=eastwest;whiteSpace=wrap;html=1;" parent="RE0LK0E4KBzCZL2A0xfb-17" vertex="1">
          <mxGeometry y="26" width="140" height="26" as="geometry" />
        </mxCell>
        <mxCell id="RE0LK0E4KBzCZL2A0xfb-21" value="Client" style="swimlane;fontStyle=0;childLayout=stackLayout;horizontal=1;startSize=26;fillColor=none;horizontalStack=0;resizeParent=1;resizeParentMax=0;resizeLast=0;collapsible=1;marginBottom=0;whiteSpace=wrap;html=1;" parent="1" vertex="1">
          <mxGeometry x="500" y="456" width="190" height="130" as="geometry" />
        </mxCell>
        <mxCell id="RE0LK0E4KBzCZL2A0xfb-22" value="+ CharField: name" style="text;strokeColor=none;fillColor=none;align=left;verticalAlign=top;spacingLeft=4;spacingRight=4;overflow=hidden;rotatable=0;points=[[0,0.5],[1,0.5]];portConstraint=eastwest;whiteSpace=wrap;html=1;" parent="RE0LK0E4KBzCZL2A0xfb-21" vertex="1">
          <mxGeometry y="26" width="190" height="26" as="geometry" />
        </mxCell>
        <mxCell id="RE0LK0E4KBzCZL2A0xfb-23" value="+ int: age" style="text;strokeColor=none;fillColor=none;align=left;verticalAlign=top;spacingLeft=4;spacingRight=4;overflow=hidden;rotatable=0;points=[[0,0.5],[1,0.5]];portConstraint=eastwest;whiteSpace=wrap;html=1;" parent="RE0LK0E4KBzCZL2A0xfb-21" vertex="1">
          <mxGeometry y="52" width="190" height="26" as="geometry" />
        </mxCell>
        <mxCell id="RE0LK0E4KBzCZL2A0xfb-24" value="+ CharField: phone_number" style="text;strokeColor=none;fillColor=none;align=left;verticalAlign=top;spacingLeft=4;spacingRight=4;overflow=hidden;rotatable=0;points=[[0,0.5],[1,0.5]];portConstraint=eastwest;whiteSpace=wrap;html=1;" parent="RE0LK0E4KBzCZL2A0xfb-21" vertex="1">
          <mxGeometry y="78" width="190" height="26" as="geometry" />
        </mxCell>
        <mxCell id="RE0LK0E4KBzCZL2A0xfb-49" value="+ int: result_price" style="text;strokeColor=none;fillColor=none;align=left;verticalAlign=top;spacingLeft=4;spacingRight=4;overflow=hidden;rotatable=0;points=[[0,0.5],[1,0.5]];portConstraint=eastwest;whiteSpace=wrap;html=1;" parent="RE0LK0E4KBzCZL2A0xfb-21" vertex="1">
          <mxGeometry y="104" width="190" height="26" as="geometry" />
        </mxCell>
        <mxCell id="RE0LK0E4KBzCZL2A0xfb-25" value="Specialization" style="swimlane;fontStyle=0;childLayout=stackLayout;horizontal=1;startSize=26;fillColor=none;horizontalStack=0;resizeParent=1;resizeParentMax=0;resizeLast=0;collapsible=1;marginBottom=0;whiteSpace=wrap;html=1;" parent="1" vertex="1">
          <mxGeometry x="860" y="40" width="140" height="52" as="geometry" />
        </mxCell>
        <mxCell id="RE0LK0E4KBzCZL2A0xfb-26" value="+ CharField: name" style="text;strokeColor=none;fillColor=none;align=left;verticalAlign=top;spacingLeft=4;spacingRight=4;overflow=hidden;rotatable=0;points=[[0,0.5],[1,0.5]];portConstraint=eastwest;whiteSpace=wrap;html=1;" parent="RE0LK0E4KBzCZL2A0xfb-25" vertex="1">
          <mxGeometry y="26" width="140" height="26" as="geometry" />
        </mxCell>
        <mxCell id="RE0LK0E4KBzCZL2A0xfb-29" value="Master" style="swimlane;fontStyle=0;childLayout=stackLayout;horizontal=1;startSize=26;fillColor=none;horizontalStack=0;resizeParent=1;resizeParentMax=0;resizeLast=0;collapsible=1;marginBottom=0;whiteSpace=wrap;html=1;" parent="1" vertex="1">
          <mxGeometry x="740" y="456" width="180" height="156" as="geometry" />
        </mxCell>
        <mxCell id="RE0LK0E4KBzCZL2A0xfb-51" value="+ CharField: name" style="text;strokeColor=none;fillColor=none;align=left;verticalAlign=top;spacingLeft=4;spacingRight=4;overflow=hidden;rotatable=0;points=[[0,0.5],[1,0.5]];portConstraint=eastwest;whiteSpace=wrap;html=1;" parent="RE0LK0E4KBzCZL2A0xfb-29" vertex="1">
          <mxGeometry y="26" width="180" height="26" as="geometry" />
        </mxCell>
        <mxCell id="RE0LK0E4KBzCZL2A0xfb-52" value="+ int: age" style="text;strokeColor=none;fillColor=none;align=left;verticalAlign=top;spacingLeft=4;spacingRight=4;overflow=hidden;rotatable=0;points=[[0,0.5],[1,0.5]];portConstraint=eastwest;whiteSpace=wrap;html=1;" parent="RE0LK0E4KBzCZL2A0xfb-29" vertex="1">
          <mxGeometry y="52" width="180" height="26" as="geometry" />
        </mxCell>
        <mxCell id="RE0LK0E4KBzCZL2A0xfb-53" value="+ CharField: phone_number" style="text;strokeColor=none;fillColor=none;align=left;verticalAlign=top;spacingLeft=4;spacingRight=4;overflow=hidden;rotatable=0;points=[[0,0.5],[1,0.5]];portConstraint=eastwest;whiteSpace=wrap;html=1;" parent="RE0LK0E4KBzCZL2A0xfb-29" vertex="1">
          <mxGeometry y="78" width="180" height="26" as="geometry" />
        </mxCell>
        <mxCell id="RE0LK0E4KBzCZL2A0xfb-54" value="+ int: order_count" style="text;strokeColor=none;fillColor=none;align=left;verticalAlign=top;spacingLeft=4;spacingRight=4;overflow=hidden;rotatable=0;points=[[0,0.5],[1,0.5]];portConstraint=eastwest;whiteSpace=wrap;html=1;" parent="RE0LK0E4KBzCZL2A0xfb-29" vertex="1">
          <mxGeometry y="104" width="180" height="26" as="geometry" />
        </mxCell>
        <mxCell id="RE0LK0E4KBzCZL2A0xfb-55" value="+ CharField: img_url" style="text;strokeColor=none;fillColor=none;align=left;verticalAlign=top;spacingLeft=4;spacingRight=4;overflow=hidden;rotatable=0;points=[[0,0.5],[1,0.5]];portConstraint=eastwest;whiteSpace=wrap;html=1;" parent="RE0LK0E4KBzCZL2A0xfb-29" vertex="1">
          <mxGeometry y="130" width="180" height="26" as="geometry" />
        </mxCell>
        <mxCell id="RE0LK0E4KBzCZL2A0xfb-33" value="PartType" style="swimlane;fontStyle=0;childLayout=stackLayout;horizontal=1;startSize=26;fillColor=none;horizontalStack=0;resizeParent=1;resizeParentMax=0;resizeLast=0;collapsible=1;marginBottom=0;whiteSpace=wrap;html=1;" parent="1" vertex="1">
          <mxGeometry x="280" y="40" width="140" height="52" as="geometry" />
        </mxCell>
        <mxCell id="RE0LK0E4KBzCZL2A0xfb-34" value="+ CharField: name" style="text;strokeColor=none;fillColor=none;align=left;verticalAlign=top;spacingLeft=4;spacingRight=4;overflow=hidden;rotatable=0;points=[[0,0.5],[1,0.5]];portConstraint=eastwest;whiteSpace=wrap;html=1;" parent="RE0LK0E4KBzCZL2A0xfb-33" vertex="1">
          <mxGeometry y="26" width="140" height="26" as="geometry" />
        </mxCell>
        <mxCell id="RE0LK0E4KBzCZL2A0xfb-37" value="Part" style="swimlane;fontStyle=0;childLayout=stackLayout;horizontal=1;startSize=26;fillColor=none;horizontalStack=0;resizeParent=1;resizeParentMax=0;resizeLast=0;collapsible=1;marginBottom=0;whiteSpace=wrap;html=1;" parent="1" vertex="1">
          <mxGeometry x="280" y="150" width="140" height="104" as="geometry" />
        </mxCell>
        <mxCell id="RE0LK0E4KBzCZL2A0xfb-38" value="+ CharField: name" style="text;strokeColor=none;fillColor=none;align=left;verticalAlign=top;spacingLeft=4;spacingRight=4;overflow=hidden;rotatable=0;points=[[0,0.5],[1,0.5]];portConstraint=eastwest;whiteSpace=wrap;html=1;" parent="RE0LK0E4KBzCZL2A0xfb-37" vertex="1">
          <mxGeometry y="26" width="140" height="26" as="geometry" />
        </mxCell>
        <mxCell id="RE0LK0E4KBzCZL2A0xfb-39" value="+ int: price" style="text;strokeColor=none;fillColor=none;align=left;verticalAlign=top;spacingLeft=4;spacingRight=4;overflow=hidden;rotatable=0;points=[[0,0.5],[1,0.5]];portConstraint=eastwest;whiteSpace=wrap;html=1;" parent="RE0LK0E4KBzCZL2A0xfb-37" vertex="1">
          <mxGeometry y="52" width="140" height="26" as="geometry" />
        </mxCell>
        <mxCell id="RE0LK0E4KBzCZL2A0xfb-40" value="+ field: type" style="text;strokeColor=none;fillColor=none;align=left;verticalAlign=top;spacingLeft=4;spacingRight=4;overflow=hidden;rotatable=0;points=[[0,0.5],[1,0.5]];portConstraint=eastwest;whiteSpace=wrap;html=1;" parent="RE0LK0E4KBzCZL2A0xfb-37" vertex="1">
          <mxGeometry y="78" width="140" height="26" as="geometry" />
        </mxCell>
        <mxCell id="RE0LK0E4KBzCZL2A0xfb-41" value="Promocode" style="swimlane;fontStyle=0;childLayout=stackLayout;horizontal=1;startSize=26;fillColor=none;horizontalStack=0;resizeParent=1;resizeParentMax=0;resizeLast=0;collapsible=1;marginBottom=0;whiteSpace=wrap;html=1;" parent="1" vertex="1">
          <mxGeometry x="120" y="680" width="140" height="78" as="geometry" />
        </mxCell>
        <mxCell id="RE0LK0E4KBzCZL2A0xfb-42" value="+ CharField: name" style="text;strokeColor=none;fillColor=none;align=left;verticalAlign=top;spacingLeft=4;spacingRight=4;overflow=hidden;rotatable=0;points=[[0,0.5],[1,0.5]];portConstraint=eastwest;whiteSpace=wrap;html=1;" parent="RE0LK0E4KBzCZL2A0xfb-41" vertex="1">
          <mxGeometry y="26" width="140" height="26" as="geometry" />
        </mxCell>
        <mxCell id="RE0LK0E4KBzCZL2A0xfb-43" value="+ int: discount" style="text;strokeColor=none;fillColor=none;align=left;verticalAlign=top;spacingLeft=4;spacingRight=4;overflow=hidden;rotatable=0;points=[[0,0.5],[1,0.5]];portConstraint=eastwest;whiteSpace=wrap;html=1;" parent="RE0LK0E4KBzCZL2A0xfb-41" vertex="1">
          <mxGeometry y="52" width="140" height="26" as="geometry" />
        </mxCell>
        <mxCell id="RE0LK0E4KBzCZL2A0xfb-45" value="Order" style="swimlane;fontStyle=0;childLayout=stackLayout;horizontal=1;startSize=26;fillColor=none;horizontalStack=0;resizeParent=1;resizeParentMax=0;resizeLast=0;collapsible=1;marginBottom=0;whiteSpace=wrap;html=1;" parent="1" vertex="1">
          <mxGeometry x="320" y="340" width="170" height="78" as="geometry" />
        </mxCell>
        <mxCell id="RE0LK0E4KBzCZL2A0xfb-46" value="+ int: whole_price" style="text;strokeColor=none;fillColor=none;align=left;verticalAlign=top;spacingLeft=4;spacingRight=4;overflow=hidden;rotatable=0;points=[[0,0.5],[1,0.5]];portConstraint=eastwest;whiteSpace=wrap;html=1;" parent="RE0LK0E4KBzCZL2A0xfb-45" vertex="1">
          <mxGeometry y="26" width="170" height="26" as="geometry" />
        </mxCell>
        <mxCell id="RE0LK0E4KBzCZL2A0xfb-47" value="+ Datetime: ordering_date" style="text;strokeColor=none;fillColor=none;align=left;verticalAlign=top;spacingLeft=4;spacingRight=4;overflow=hidden;rotatable=0;points=[[0,0.5],[1,0.5]];portConstraint=eastwest;whiteSpace=wrap;html=1;" parent="RE0LK0E4KBzCZL2A0xfb-45" vertex="1">
          <mxGeometry y="52" width="170" height="26" as="geometry" />
        </mxCell>
        <mxCell id="9mCtG8LrpaYF-mTxMxdw-2" value="" style="fontSize=12;html=1;endArrow=ERoneToMany;rounded=0;exitX=0.5;exitY=0;exitDx=0;exitDy=0;entryX=0.506;entryY=0.973;entryDx=0;entryDy=0;entryPerimeter=0;" edge="1" parent="1" source="RE0LK0E4KBzCZL2A0xfb-9" target="RE0LK0E4KBzCZL2A0xfb-6">
          <mxGeometry width="100" height="100" relative="1" as="geometry">
            <mxPoint x="110" y="180" as="sourcePoint" />
            <mxPoint x="210" y="80" as="targetPoint" />
          </mxGeometry>
        </mxCell>
        <mxCell id="9mCtG8LrpaYF-mTxMxdw-3" value="" style="fontSize=12;html=1;endArrow=ERoneToMany;rounded=0;exitX=0.5;exitY=0;exitDx=0;exitDy=0;entryX=0.506;entryY=0.973;entryDx=0;entryDy=0;entryPerimeter=0;" edge="1" parent="1">
          <mxGeometry width="100" height="100" relative="1" as="geometry">
            <mxPoint x="360" y="150" as="sourcePoint" />
            <mxPoint x="361" y="91" as="targetPoint" />
          </mxGeometry>
        </mxCell>
        <mxCell id="9mCtG8LrpaYF-mTxMxdw-4" value="" style="fontSize=12;html=1;endArrow=ERoneToMany;rounded=0;exitX=0.5;exitY=0;exitDx=0;exitDy=0;entryX=0.491;entryY=1.083;entryDx=0;entryDy=0;entryPerimeter=0;" edge="1" parent="1" target="RE0LK0E4KBzCZL2A0xfb-47">
          <mxGeometry width="100" height="100" relative="1" as="geometry">
            <mxPoint x="600" y="456" as="sourcePoint" />
            <mxPoint x="601" y="397" as="targetPoint" />
          </mxGeometry>
        </mxCell>
        <mxCell id="9mCtG8LrpaYF-mTxMxdw-7" value="" style="fontSize=12;html=1;endArrow=ERoneToMany;rounded=0;exitX=0.5;exitY=0;exitDx=0;exitDy=0;entryX=1;entryY=0.5;entryDx=0;entryDy=0;" edge="1" parent="1" target="RE0LK0E4KBzCZL2A0xfb-46">
          <mxGeometry width="100" height="100" relative="1" as="geometry">
            <mxPoint x="827" y="456" as="sourcePoint" />
            <mxPoint x="630" y="420" as="targetPoint" />
          </mxGeometry>
        </mxCell>
        <mxCell id="9mCtG8LrpaYF-mTxMxdw-8" value="" style="fontSize=12;html=1;endArrow=ERoneToMany;rounded=0;exitX=0.512;exitY=1.136;exitDx=0;exitDy=0;entryX=0.5;entryY=0;entryDx=0;entryDy=0;exitPerimeter=0;" edge="1" parent="1" source="RE0LK0E4KBzCZL2A0xfb-11" target="RE0LK0E4KBzCZL2A0xfb-45">
          <mxGeometry width="100" height="100" relative="1" as="geometry">
            <mxPoint x="417" y="340" as="sourcePoint" />
            <mxPoint x="80" y="263" as="targetPoint" />
          </mxGeometry>
        </mxCell>
        <mxCell id="9mCtG8LrpaYF-mTxMxdw-9" value="" style="fontSize=12;html=1;endArrow=ERmany;startArrow=ERmany;rounded=0;exitX=0.595;exitY=-0.052;exitDx=0;exitDy=0;entryX=0.539;entryY=1.043;entryDx=0;entryDy=0;entryPerimeter=0;exitPerimeter=0;" edge="1" parent="1" source="RE0LK0E4KBzCZL2A0xfb-45" target="RE0LK0E4KBzCZL2A0xfb-40">
          <mxGeometry width="100" height="100" relative="1" as="geometry">
            <mxPoint x="470" y="300" as="sourcePoint" />
            <mxPoint x="570" y="200" as="targetPoint" />
          </mxGeometry>
        </mxCell>
        <mxCell id="9mCtG8LrpaYF-mTxMxdw-10" value="" style="fontSize=12;html=1;endArrow=ERoneToMany;rounded=0;exitX=0.471;exitY=1.055;exitDx=0;exitDy=0;exitPerimeter=0;" edge="1" parent="1" source="RE0LK0E4KBzCZL2A0xfb-14">
          <mxGeometry width="100" height="100" relative="1" as="geometry">
            <mxPoint x="490" y="110" as="sourcePoint" />
            <mxPoint x="600" y="450" as="targetPoint" />
          </mxGeometry>
        </mxCell>
        <mxCell id="9mCtG8LrpaYF-mTxMxdw-11" value="" style="fontSize=12;html=1;endArrow=ERoneToMany;rounded=0;exitX=0.461;exitY=1.119;exitDx=0;exitDy=0;exitPerimeter=0;" edge="1" parent="1" source="RE0LK0E4KBzCZL2A0xfb-18">
          <mxGeometry width="100" height="100" relative="1" as="geometry">
            <mxPoint x="566" y="103" as="sourcePoint" />
            <mxPoint x="610" y="450" as="targetPoint" />
          </mxGeometry>
        </mxCell>
        <mxCell id="9mCtG8LrpaYF-mTxMxdw-12" value="" style="fontSize=12;html=1;endArrow=ERoneToMany;rounded=0;exitX=0.461;exitY=1.119;exitDx=0;exitDy=0;exitPerimeter=0;entryX=0.596;entryY=-0.019;entryDx=0;entryDy=0;entryPerimeter=0;" edge="1" parent="1" target="RE0LK0E4KBzCZL2A0xfb-29">
          <mxGeometry width="100" height="100" relative="1" as="geometry">
            <mxPoint x="955" y="92" as="sourcePoint" />
            <mxPoint x="830" y="447" as="targetPoint" />
          </mxGeometry>
        </mxCell>
        <mxCell id="9mCtG8LrpaYF-mTxMxdw-13" value="QA" style="swimlane;fontStyle=0;childLayout=stackLayout;horizontal=1;startSize=26;fillColor=none;horizontalStack=0;resizeParent=1;resizeParentMax=0;resizeLast=0;collapsible=1;marginBottom=0;whiteSpace=wrap;html=1;" vertex="1" parent="1">
          <mxGeometry x="310" y="680" width="140" height="104" as="geometry" />
        </mxCell>
        <mxCell id="9mCtG8LrpaYF-mTxMxdw-14" value="+ CharField: question" style="text;strokeColor=none;fillColor=none;align=left;verticalAlign=top;spacingLeft=4;spacingRight=4;overflow=hidden;rotatable=0;points=[[0,0.5],[1,0.5]];portConstraint=eastwest;whiteSpace=wrap;html=1;" vertex="1" parent="9mCtG8LrpaYF-mTxMxdw-13">
          <mxGeometry y="26" width="140" height="26" as="geometry" />
        </mxCell>
        <mxCell id="9mCtG8LrpaYF-mTxMxdw-15" value="+ TextField: answer" style="text;strokeColor=none;fillColor=none;align=left;verticalAlign=top;spacingLeft=4;spacingRight=4;overflow=hidden;rotatable=0;points=[[0,0.5],[1,0.5]];portConstraint=eastwest;whiteSpace=wrap;html=1;" vertex="1" parent="9mCtG8LrpaYF-mTxMxdw-13">
          <mxGeometry y="52" width="140" height="26" as="geometry" />
        </mxCell>
        <mxCell id="9mCtG8LrpaYF-mTxMxdw-16" value="+ DateField: date" style="text;strokeColor=none;fillColor=none;align=left;verticalAlign=top;spacingLeft=4;spacingRight=4;overflow=hidden;rotatable=0;points=[[0,0.5],[1,0.5]];portConstraint=eastwest;whiteSpace=wrap;html=1;" vertex="1" parent="9mCtG8LrpaYF-mTxMxdw-13">
          <mxGeometry y="78" width="140" height="26" as="geometry" />
        </mxCell>
        <mxCell id="9mCtG8LrpaYF-mTxMxdw-17" value="Job" style="swimlane;fontStyle=0;childLayout=stackLayout;horizontal=1;startSize=26;fillColor=none;horizontalStack=0;resizeParent=1;resizeParentMax=0;resizeLast=0;collapsible=1;marginBottom=0;whiteSpace=wrap;html=1;" vertex="1" parent="1">
          <mxGeometry x="500" y="680" width="140" height="104" as="geometry" />
        </mxCell>
        <mxCell id="9mCtG8LrpaYF-mTxMxdw-18" value="+ CharField: title" style="text;strokeColor=none;fillColor=none;align=left;verticalAlign=top;spacingLeft=4;spacingRight=4;overflow=hidden;rotatable=0;points=[[0,0.5],[1,0.5]];portConstraint=eastwest;whiteSpace=wrap;html=1;" vertex="1" parent="9mCtG8LrpaYF-mTxMxdw-17">
          <mxGeometry y="26" width="140" height="26" as="geometry" />
        </mxCell>
        <mxCell id="9mCtG8LrpaYF-mTxMxdw-19" value="+ int: salary" style="text;strokeColor=none;fillColor=none;align=left;verticalAlign=top;spacingLeft=4;spacingRight=4;overflow=hidden;rotatable=0;points=[[0,0.5],[1,0.5]];portConstraint=eastwest;whiteSpace=wrap;html=1;" vertex="1" parent="9mCtG8LrpaYF-mTxMxdw-17">
          <mxGeometry y="52" width="140" height="26" as="geometry" />
        </mxCell>
        <mxCell id="9mCtG8LrpaYF-mTxMxdw-20" value="+ TextField: description" style="text;strokeColor=none;fillColor=none;align=left;verticalAlign=top;spacingLeft=4;spacingRight=4;overflow=hidden;rotatable=0;points=[[0,0.5],[1,0.5]];portConstraint=eastwest;whiteSpace=wrap;html=1;" vertex="1" parent="9mCtG8LrpaYF-mTxMxdw-17">
          <mxGeometry y="78" width="140" height="26" as="geometry" />
        </mxCell>
        <mxCell id="9mCtG8LrpaYF-mTxMxdw-21" value="Review" style="swimlane;fontStyle=0;childLayout=stackLayout;horizontal=1;startSize=26;fillColor=none;horizontalStack=0;resizeParent=1;resizeParentMax=0;resizeLast=0;collapsible=1;marginBottom=0;whiteSpace=wrap;html=1;" vertex="1" parent="1">
          <mxGeometry x="690" y="680" width="140" height="78" as="geometry" />
        </mxCell>
        <mxCell id="9mCtG8LrpaYF-mTxMxdw-22" value="+ TextField: text" style="text;strokeColor=none;fillColor=none;align=left;verticalAlign=top;spacingLeft=4;spacingRight=4;overflow=hidden;rotatable=0;points=[[0,0.5],[1,0.5]];portConstraint=eastwest;whiteSpace=wrap;html=1;" vertex="1" parent="9mCtG8LrpaYF-mTxMxdw-21">
          <mxGeometry y="26" width="140" height="26" as="geometry" />
        </mxCell>
        <mxCell id="9mCtG8LrpaYF-mTxMxdw-23" value="+ DateTimeField:date" style="text;strokeColor=none;fillColor=none;align=left;verticalAlign=top;spacingLeft=4;spacingRight=4;overflow=hidden;rotatable=0;points=[[0,0.5],[1,0.5]];portConstraint=eastwest;whiteSpace=wrap;html=1;" vertex="1" parent="9mCtG8LrpaYF-mTxMxdw-21">
          <mxGeometry y="52" width="140" height="26" as="geometry" />
        </mxCell>
        <mxCell id="9mCtG8LrpaYF-mTxMxdw-25" value="Article" style="swimlane;fontStyle=0;childLayout=stackLayout;horizontal=1;startSize=26;fillColor=none;horizontalStack=0;resizeParent=1;resizeParentMax=0;resizeLast=0;collapsible=1;marginBottom=0;whiteSpace=wrap;html=1;" vertex="1" parent="1">
          <mxGeometry x="880" y="677" width="140" height="130" as="geometry" />
        </mxCell>
        <mxCell id="9mCtG8LrpaYF-mTxMxdw-26" value="+ CharField: title" style="text;strokeColor=none;fillColor=none;align=left;verticalAlign=top;spacingLeft=4;spacingRight=4;overflow=hidden;rotatable=0;points=[[0,0.5],[1,0.5]];portConstraint=eastwest;whiteSpace=wrap;html=1;" vertex="1" parent="9mCtG8LrpaYF-mTxMxdw-25">
          <mxGeometry y="26" width="140" height="26" as="geometry" />
        </mxCell>
        <mxCell id="9mCtG8LrpaYF-mTxMxdw-27" value="+ TextField: text" style="text;strokeColor=none;fillColor=none;align=left;verticalAlign=top;spacingLeft=4;spacingRight=4;overflow=hidden;rotatable=0;points=[[0,0.5],[1,0.5]];portConstraint=eastwest;whiteSpace=wrap;html=1;" vertex="1" parent="9mCtG8LrpaYF-mTxMxdw-25">
          <mxGeometry y="52" width="140" height="26" as="geometry" />
        </mxCell>
        <mxCell id="9mCtG8LrpaYF-mTxMxdw-28" value="+ CharField: img_url" style="text;strokeColor=none;fillColor=none;align=left;verticalAlign=top;spacingLeft=4;spacingRight=4;overflow=hidden;rotatable=0;points=[[0,0.5],[1,0.5]];portConstraint=eastwest;whiteSpace=wrap;html=1;" vertex="1" parent="9mCtG8LrpaYF-mTxMxdw-25">
          <mxGeometry y="78" width="140" height="26" as="geometry" />
        </mxCell>
        <mxCell id="9mCtG8LrpaYF-mTxMxdw-30" value="+ DateTime: created_at" style="text;strokeColor=none;fillColor=none;align=left;verticalAlign=top;spacingLeft=4;spacingRight=4;overflow=hidden;rotatable=0;points=[[0,0.5],[1,0.5]];portConstraint=eastwest;whiteSpace=wrap;html=1;" vertex="1" parent="9mCtG8LrpaYF-mTxMxdw-25">
          <mxGeometry y="104" width="140" height="26" as="geometry" />
        </mxCell>
        <mxCell id="9mCtG8LrpaYF-mTxMxdw-29" value="" style="fontSize=12;html=1;endArrow=ERoneToMany;rounded=0;exitX=0.495;exitY=1.176;exitDx=0;exitDy=0;exitPerimeter=0;entryX=0.5;entryY=0;entryDx=0;entryDy=0;" edge="1" parent="1" source="RE0LK0E4KBzCZL2A0xfb-49" target="9mCtG8LrpaYF-mTxMxdw-21">
          <mxGeometry width="100" height="100" relative="1" as="geometry">
            <mxPoint x="1188" y="290" as="sourcePoint" />
            <mxPoint x="1080" y="651" as="targetPoint" />
          </mxGeometry>
        </mxCell>
      </root>
    </mxGraphModel>
  </diagram>
</mxfile>
